# xmcd
#
# Track frame offsets: 
#        150
#        15321
#        30867
#        47316
#        80696
#        100172
#        121807
#        146394
#        164200
#        185654
#        202561
#
# Disc length: 3055 seconds
#
# Revision: 0
# Processed by: cddbd v1.5.2PL0 Copyright (c) Steve Scherf et al.
# Submitted via: ExactAudioCopy v1.0b3
#
DISCID=7c0bed0b
DTITLE=Szulerzy - Blues'n'roll
DYEAR=2012
DGENRE=Blues
TTITLE0=Płonę dla ciebie, płonę
TTITLE1=Jak żuraw z czaplą
TTITLE2=Obywatel Nowak Jan
TTITLE3=Modlitwa moja
TTITLE4=Stary płaszcz
TTITLE5=Jestem niepokorna
TTITLE6=Kto uczynił taki cud 
TTITLE7=To mój dobry dzień
TTITLE8=To co liczy się
TTITLE9=Skok Domela
TTITLE10=Daj mi słowa
EXTD=
EXTT0=
EXTT1=
EXTT2=
EXTT3=
EXTT4=
EXTT5=
EXTT6=
EXTT7=
EXTT8=
EXTT9=
EXTT10=
PLAYORDER=
